<svg aria-hidden="true" style="position: absolute; width: 0; height: 0; overflow: hidden;" version="1.1" xmlns="http://www.w3.org/2000/svg" xmlns:xlink="http://www.w3.org/1999/xlink">
<defs>
<symbol id="icon-enjoy" viewBox="0 0 32 32">
<path d="M10.145 3.75c0.479 0.464 0.581 1.080 0.662 1.71 0.158 1.197 0.684 2.618 1.642 3.403 0.21 0.137 0.443 0.18 0.685 0.233 0.055 0.013 0.11 0.026 0.167 0.039 0.176 0.041 0.351 0.080 0.527 0.119 0.115 0.026 0.23 0.053 0.346 0.080 0.228 0.052 0.455 0.104 0.683 0.155 0.215 0.048 0.43 0.098 0.644 0.149 0.849 0.202 1.556 0.171 2.413 0.050 0.087-0.012 0.175-0.024 0.262-0.036 0.212-0.029 0.424-0.059 0.636-0.089-0.020-0.053-0.020-0.053-0.040-0.106-0.14-0.368-0.277-0.736-0.414-1.104-0.051-0.137-0.103-0.274-0.155-0.411-0.65-1.711-0.65-1.711-0.321-2.473 0.206-0.357 0.468-0.599 0.86-0.75 0.439-0.106 0.909-0.087 1.309 0.131 0.543 0.351 0.731 0.921 0.94 1.501 0.034 0.092 0.067 0.183 0.101 0.275 0.055 0.148 0.109 0.297 0.163 0.445 0.128 0.351 0.26 0.7 0.395 1.049 0.099 0.257 0.197 0.514 0.295 0.771 0.048 0.126 0.097 0.251 0.145 0.377 0.606 1.557 0.606 1.557 0.279 2.321-0.248 0.431-0.585 0.695-1.059 0.848-0.26 0.048-0.521 0.075-0.784 0.103-0.154 0.018-0.308 0.036-0.461 0.054-0.241 0.027-0.483 0.054-0.724 0.081-0.234 0.026-0.467 0.053-0.701 0.081-0.072 0.007-0.144 0.015-0.219 0.022-0.067 0.008-0.135 0.016-0.204 0.025-0.089 0.010-0.089 0.010-0.179 0.020-0.233 0.075-0.331 0.17-0.478 0.365-0.031 0.18-0.044 0.323-0.041 0.502-0.001 0.050-0.001 0.1-0.002 0.151-0.002 0.165-0.001 0.329-0 0.494-0 0.116-0.001 0.232-0.001 0.348-0.001 0.244-0 0.488 0.001 0.732 0.001 0.308-0 0.615-0.003 0.923-0.009 1.302 0.015 2.522 0.388 3.78 0.034 0.132 0.034 0.132 0.034 0.32 0.030-0.019 0.059-0.038 0.090-0.057 0.042-0.027 0.084-0.053 0.128-0.081 0.047-0.030 0.095-0.060 0.144-0.091 0.106-0.067 0.212-0.134 0.318-0.201 0.279-0.176 0.557-0.353 0.833-0.533 0.078-0.051 0.078-0.051 0.158-0.102 0.1-0.065 0.199-0.13 0.298-0.195 0.432-0.279 0.882-0.437 1.406-0.365 0.509 0.118 0.876 0.327 1.188 0.75 0.258 0.433 0.316 0.878 0.25 1.375-0.221 0.8-0.866 1.183-1.523 1.602-0.088 0.057-0.177 0.114-0.265 0.171-0.138 0.089-0.275 0.178-0.413 0.266-0.33 0.212-0.658 0.428-0.985 0.645-0.091 0.060-0.182 0.12-0.273 0.18-0.131 0.087-0.262 0.174-0.393 0.261-0.121 0.081-0.242 0.161-0.364 0.241-0.035 0.024-0.070 0.047-0.107 0.071-0.55 0.361-1.126 0.516-1.784 0.403-0.501-0.136-0.921-0.475-1.207-0.902-0.222-0.445-0.316-0.9-0.393-1.388-0.012-0.071-0.024-0.141-0.036-0.214-0.037-0.224-0.074-0.447-0.11-0.671-0.037-0.225-0.074-0.45-0.111-0.675-0.023-0.139-0.046-0.279-0.068-0.419-0.010-0.063-0.021-0.126-0.032-0.191-0.013-0.083-0.013-0.083-0.027-0.168-0.035-0.149-0.085-0.266-0.16-0.399-0.124 0-0.248 0-0.375 0-0.727 1.279-0.572 2.918-0.207 4.289 0.241 0.838 0.604 1.63 1.058 2.372 0.241 0.425 0.283 0.914 0.17 1.385-0.166 0.515-0.423 0.917-0.912 1.169-0.481 0.214-1.036 0.251-1.545 0.108-1.028-0.472-1.617-1.899-1.995-2.907-0.822-2.323-0.657-4.676-0.113-7.042 0.016-0.070 0.032-0.14 0.048-0.212 0.041-0.159 0.085-0.308 0.139-0.462 0.329-0.993 0.272-2.023 0.26-3.056-0.002-0.204-0.002-0.408-0.002-0.611-0-0.198-0.001-0.396-0.002-0.594-0.001-0.094-0.001-0.187-0.001-0.281 0.007-1.019 0.007-1.019-0.489-1.878-0.105-0.104-0.212-0.205-0.319-0.307-1.542-1.508-2.344-3.568-2.832-5.633-0.013-0.056-0.027-0.111-0.041-0.169-0.127-0.564-0.181-1.143 0.096-1.671 0.688-0.98 1.704-1.106 2.707-0.5z"></path>
<path d="M16.293 4.147c0.529 0.377 0.938 0.938 1.067 1.585 0.101 0.937-0.068 1.665-0.656 2.405-0.424 0.464-1.007 0.777-1.637 0.815-0.885 0.021-1.579-0.135-2.25-0.751-0.593-0.625-0.722-1.337-0.709-2.166 0.028-0.681 0.351-1.151 0.795-1.641 0.975-0.88 2.292-0.951 3.39-0.248z"></path>
<path d="M5.125 14.313c0.171 0.101 0.325 0.221 0.48 0.344 0.044 0.034 0.087 0.068 0.132 0.103 0.088 0.069 0.176 0.137 0.263 0.207 0.112 0.087 0.225 0.171 0.34 0.254 0.505 0.378 0.505 0.378 0.558 0.671-0.024 0.241-0.059 0.361-0.211 0.547-0.207 0.104-0.403 0.111-0.625 0.063-0.15-0.099-0.15-0.099-0.299-0.221-0.075-0.061-0.075-0.061-0.151-0.122-0.037-0.031-0.075-0.062-0.113-0.095-0 0.036-0.001 0.072-0.002 0.11-0.005 0.379-0.012 0.759-0.018 1.138-0.002 0.141-0.005 0.282-0.007 0.424-0.003 0.204-0.006 0.408-0.010 0.612-0.001 0.094-0.001 0.094-0.002 0.189-0.016 0.787-0.143 1.264-0.696 1.829-0.415 0.279-0.894 0.388-1.391 0.324-0.5-0.109-0.898-0.32-1.18-0.754-0.25-0.417-0.267-0.925-0.162-1.395 0.17-0.484 0.458-0.75 0.904-0.976 0.423-0.155 0.807-0.13 1.25-0.063 0.062 0.031 0.062 0.031 0.125 0.063-0.001-0.036-0.001-0.072-0.002-0.109-0.006-0.376-0.009-0.752-0.012-1.128-0.001-0.14-0.003-0.281-0.005-0.421-0.003-0.202-0.004-0.404-0.006-0.605-0.001-0.063-0.003-0.125-0.004-0.19-0-0.275 0.001-0.437 0.143-0.678 0.236-0.207 0.405-0.199 0.698-0.118z"></path>
<path d="M27.965 8.336c0.361 0.012 0.596 0.231 0.866 0.452 0.123 0.1 0.247 0.198 0.371 0.297 0.179 0.143 0.358 0.286 0.535 0.43 0.037 0.030 0.074 0.060 0.113 0.092 0.158 0.145 0.152 0.227 0.17 0.448-0.004 0.182-0.016 0.252-0.109 0.414-0.247 0.144-0.445 0.156-0.723 0.094-0.152-0.1-0.152-0.1-0.3-0.221-0.074-0.060-0.074-0.060-0.15-0.122-0.037-0.031-0.074-0.062-0.112-0.094-0 0.040-0 0.080-0.001 0.122-0.003 0.42-0.007 0.84-0.012 1.259-0.002 0.156-0.003 0.313-0.004 0.469-0.001 0.226-0.004 0.451-0.007 0.677-0 0.104-0 0.104-0 0.21-0.009 0.511-0.099 0.95-0.411 1.365-0.417 0.362-0.805 0.49-1.349 0.547-0.551-0.060-0.991-0.232-1.383-0.633-0.296-0.416-0.4-0.818-0.332-1.328 0.13-0.523 0.482-0.857 0.929-1.135 0.389-0.179 0.84-0.143 1.258-0.115 0.062 0.031 0.062 0.031 0.125 0.063-0-0.035-0.001-0.069-0.001-0.105-0.004-0.36-0.007-0.72-0.009-1.080-0.001-0.134-0.002-0.269-0.004-0.403-0.002-0.193-0.003-0.386-0.004-0.579-0.001-0.060-0.002-0.12-0.003-0.182-0-0.311 0.004-0.525 0.209-0.777 0.125-0.125 0.125-0.125 0.34-0.164z"></path>
<path d="M27 2.875c0.041 0 0.082 0 0.125 0 0.027 0.058 0.053 0.116 0.081 0.176 0.301 0.611 0.597 0.879 1.232 1.136 0 0.041 0 0.082 0 0.125-0.055 0.026-0.11 0.052-0.167 0.078-0.447 0.222-0.739 0.399-0.958 0.859-0.047 0.074-0.095 0.147-0.145 0.219-0.035 0.052-0.070 0.103-0.105 0.156-0.175-0.152-0.244-0.305-0.336-0.516-0.205-0.393-0.482-0.535-0.868-0.713-0.171-0.084-0.171-0.084-0.233-0.209 0.133-0.073 0.265-0.146 0.398-0.219 0.038-0.021 0.075-0.042 0.114-0.063 0.286-0.156 0.286-0.156 0.425-0.156 0.014-0.052 0.028-0.103 0.043-0.156 0.098-0.26 0.221-0.5 0.395-0.719z"></path>
<path d="M7 26c0.164 0.148 0.271 0.306 0.375 0.5 0 0.041 0 0.082 0 0.125 0.045 0.017 0.090 0.034 0.137 0.051 0.174 0.074 0.328 0.161 0.488 0.262-0.116 0.136-0.193 0.19-0.363 0.254-0.295 0.179-0.416 0.446-0.574 0.746-0.143-0.132-0.201-0.216-0.289-0.398-0.157-0.292-0.42-0.404-0.711-0.539 0.153-0.16 0.304-0.27 0.5-0.375 0.041 0 0.082 0 0.125 0 0.017-0.045 0.034-0.090 0.051-0.137 0.074-0.174 0.161-0.328 0.262-0.488z"></path>
<path d="M3.125 4.063c0.041 0 0.083 0 0.125 0 0.058 0.097 0.112 0.196 0.164 0.297 0.191 0.334 0.356 0.443 0.711 0.578-0.092 0.277-0.244 0.307-0.5 0.438-0.041 0-0.083 0-0.125 0-0.018 0.057-0.036 0.113-0.055 0.172-0.056 0.161-0.115 0.304-0.195 0.453-0.041 0-0.083 0-0.125 0-0.042-0.081-0.084-0.161-0.125-0.242-0.023-0.045-0.046-0.090-0.070-0.136-0.055-0.122-0.055-0.122-0.055-0.247-0.045-0.017-0.090-0.034-0.137-0.051-0.176-0.074-0.331-0.154-0.488-0.262 0-0.041 0-0.082 0-0.125 0.037-0.016 0.074-0.032 0.112-0.049 0.408-0.198 0.584-0.413 0.763-0.826z"></path>
<path d="M25.875 22c0.041 0 0.082 0 0.125 0 0.016 0.037 0.032 0.074 0.049 0.112 0.198 0.408 0.413 0.584 0.826 0.763 0 0.041 0 0.082 0 0.125-0.037 0.016-0.074 0.032-0.112 0.049-0.408 0.198-0.584 0.413-0.763 0.826-0.22-0.073-0.221-0.101-0.32-0.297-0.18-0.308-0.424-0.434-0.742-0.578 0.139-0.155 0.238-0.245 0.434-0.324 0.274-0.162 0.37-0.394 0.504-0.676z"></path>
</symbol>
<symbol id="icon-team" viewBox="0 0 32 32">
<path d="M16.999 12.518c0.126 0.093 0.249 0.189 0.372 0.287 0.088 0.068 0.177 0.135 0.266 0.202 0.042 0.032 0.083 0.063 0.126 0.096 0.605 0.458 1.227 0.495 1.964 0.535 0.556 0.030 1.027 0.113 1.452 0.496 0.41 0.459 0.507 1.076 0.637 1.66 0.188 0.81 0.599 1.208 1.206 1.767 0.44 0.42 0.704 0.824 0.758 1.44-0.029 0.439-0.232 0.838-0.421 1.228-0.025 0.052-0.050 0.104-0.076 0.157-0.051 0.103-0.102 0.206-0.154 0.309-0.259 0.525-0.271 0.94-0.197 1.513 0.091 0.796 0.16 1.41-0.34 2.086-0.316 0.343-0.771 0.502-1.194 0.673-0.858 0.348-1.215 0.792-1.702 1.548-0.286 0.439-0.543 0.8-1.064 0.958-0.564 0.114-1.033 0.015-1.567-0.16-0.848-0.271-1.457-0.22-2.295 0.053-0.612 0.194-1.186 0.245-1.771-0.053-0.334-0.241-0.528-0.517-0.746-0.863-0.491-0.782-0.491-0.782-1.234-1.305-0.038-0.018-0.075-0.036-0.114-0.054-0.243-0.114-0.492-0.212-0.742-0.309-0.5-0.204-0.837-0.485-1.058-0.981-0.165-0.429-0.122-0.853-0.073-1.305 0.006-0.057 0.012-0.114 0.018-0.173 0.013-0.114 0.026-0.228 0.041-0.341 0.077-0.689-0.133-1.171-0.439-1.782-0.063-0.127-0.125-0.253-0.188-0.38-0.028-0.055-0.055-0.111-0.084-0.168-0.216-0.48-0.157-0.923 0.023-1.404 0.18-0.347 0.467-0.591 0.752-0.853 0.745-0.694 0.939-1.204 1.178-2.183 0.121-0.476 0.238-0.831 0.618-1.16 0.033-0.029 0.065-0.059 0.099-0.089 0.447-0.287 0.896-0.31 1.413-0.337 0.676-0.036 1.192-0.109 1.75-0.516 0.034-0.025 0.069-0.049 0.104-0.074 0.103-0.073 0.204-0.148 0.306-0.223 0.739-0.539 1.532-0.841 2.374-0.294zM13.125 16.75c-0.038 0.033-0.076 0.066-0.115 0.1-0.795 0.736-1.18 1.786-1.277 2.843-0.035 1.138 0.382 2.215 1.143 3.056 0.033 0.038 0.066 0.076 0.1 0.115 0.72 0.778 1.764 1.182 2.8 1.28 1.137 0.039 2.219-0.339 3.064-1.102 0.896-0.853 1.394-1.927 1.434-3.168-0.038-1.083-0.42-2.069-1.148-2.875-0.033-0.038-0.066-0.076-0.1-0.115-0.736-0.795-1.786-1.18-2.843-1.277-1.138-0.035-2.215 0.382-3.056 1.143z"></path>
<path d="M17.375 0.875c0.069 0.028 0.138 0.057 0.209 0.086 0.973 0.441 1.68 1.183 2.1 2.17 0.388 1.056 0.34 2.118-0.086 3.149-0.484 0.974-1.289 1.709-2.32 2.064-0.113 0.034-0.226 0.065-0.34 0.094-0.046 0.012-0.093 0.024-0.14 0.036-1.102 0.169-2.166-0.017-3.091-0.652-0.841-0.646-1.421-1.503-1.619-2.555-0.14-1.138 0.090-2.206 0.794-3.126 1.074-1.246 2.895-1.947 4.494-1.266z"></path>
<path d="M28.688 13.938c0.056 0.044 0.111 0.088 0.169 0.134 1.158 0.981 1.992 2.483 2.159 3.996-0.021 0.162-0.077 0.206-0.203 0.307-0.121 0.023-0.121 0.023-0.26 0.023-0.053 0-0.106 0-0.16 0.001-0.058-0.001-0.116-0.001-0.175-0.002-0.091 0-0.091 0-0.185 0-0.202-0-0.404-0.002-0.606-0.003-0.14-0-0.28-0.001-0.42-0.001-0.368-0.001-0.737-0.003-1.105-0.005-0.376-0.002-0.752-0.003-1.127-0.004-0.738-0.002-1.475-0.005-2.213-0.009-0.021-0.052-0.042-0.104-0.064-0.157-0.028-0.068-0.056-0.136-0.084-0.206-0.027-0.067-0.055-0.135-0.083-0.204-0.091-0.204-0.194-0.352-0.351-0.511-0.048-0.050-0.097-0.1-0.147-0.152-0.072-0.072-0.072-0.072-0.146-0.145-0.045-0.047-0.090-0.093-0.136-0.141-0.173-0.177-0.337-0.34-0.539-0.484-0.321-0.294-0.379-0.832-0.473-1.242-0.198-0.819-0.504-1.353-1.102-1.945 2.322-1.297 5.216-0.873 7.25 0.75z"></path>
<path d="M10.563 13.188c-0.043 0.040-0.085 0.080-0.129 0.121-0.143 0.145-0.277 0.296-0.406 0.453-0.035 0.042-0.070 0.084-0.106 0.128-0.316 0.502-0.432 1.068-0.551 1.642-0.107 0.486-0.286 0.79-0.668 1.117-0.055 0.048-0.11 0.097-0.166 0.147-0.1 0.088-0.2 0.176-0.301 0.263-0.395 0.366-0.629 0.807-0.799 1.317-0.812 0.004-1.623 0.008-2.435 0.010-0.377 0.001-0.754 0.002-1.131 0.004-0.364 0.002-0.727 0.003-1.091 0.004-0.139 0-0.278 0.001-0.417 0.002-0.194 0.001-0.388 0.002-0.582 0.001-0.058 0.001-0.116 0.001-0.175 0.002-0.053-0-0.106-0-0.16-0.001-0.046 0-0.092 0-0.139 0.001-0.155-0.030-0.211-0.088-0.308-0.211-0.145-0.939 0.628-2.304 1.148-3.016 1.142-1.453 2.65-2.426 4.499-2.693 1.279-0.152 2.812-0.018 3.916 0.709z"></path>
<path d="M25.813 5.438c0.047 0.019 0.093 0.038 0.141 0.057 0.808 0.367 1.336 1.036 1.673 1.843 0.312 0.84 0.26 1.747-0.067 2.576-0.392 0.852-1.058 1.476-1.936 1.805-0.911 0.3-1.933 0.235-2.789-0.195-0.856-0.502-1.433-1.264-1.685-2.225-0.152-1.009-0-1.958 0.599-2.798 0.509-0.688 1.201-1.077 2.024-1.288 0.708-0.105 1.374-0.043 2.038 0.226z"></path>
<path d="M9.657 5.864c0.618 0.52 1.102 1.263 1.218 2.074 0.080 1.128-0.124 2.031-0.855 2.918-0.565 0.608-1.367 0.988-2.196 1.032-1.028 0.019-1.935-0.221-2.699-0.95-0.762-0.85-0.997-1.757-0.938-2.875 0.119-0.89 0.587-1.667 1.281-2.223 1.257-0.921 2.934-0.883 4.188 0.024z"></path>
<path d="M15.749 9.053c2.187-0.059 4.17 0.771 5.751 2.26 0.174 0.182 0.341 0.368 0.5 0.563-0.090 0.18-0.204 0.19-0.391 0.262-0.291 0.114-0.543 0.249-0.809 0.414-0.488 0.269-0.948 0.257-1.488 0.199-0.059-0.005-0.117-0.009-0.178-0.014-0.514-0.059-0.814-0.242-1.205-0.572-0.746-0.615-1.396-0.857-2.367-0.789-0.691 0.121-1.243 0.549-1.765 0.995-0.345 0.29-0.666 0.345-1.11 0.38-0.080 0.009-0.16 0.019-0.243 0.029-0.746 0.063-1.248-0.202-1.877-0.58-0.184-0.104-0.372-0.183-0.568-0.262 0.928-1.42 2.645-2.311 4.258-2.688 0.497-0.104 0.985-0.17 1.491-0.197z"></path>
<path d="M15.996 17.414c0.191 0.023 0.191 0.023 0.29 0.131 0.091 0.145 0.148 0.278 0.203 0.44 0.019 0.056 0.038 0.111 0.058 0.168 0.029 0.086 0.029 0.086 0.058 0.174 0.020 0.058 0.040 0.117 0.061 0.177 0.049 0.144 0.098 0.288 0.146 0.432 0.044 0.001 0.088 0.002 0.134 0.003 0.2 0.005 0.4 0.011 0.601 0.017 0.069 0.001 0.139 0.003 0.21 0.004 0.067 0.002 0.134 0.004 0.203 0.007 0.062 0.002 0.123 0.003 0.186 0.005 0.191 0.031 0.279 0.080 0.416 0.215 0.035 0.182 0.035 0.182 0 0.375-0.133 0.146-0.133 0.146-0.313 0.281-0.062 0.048-0.125 0.095-0.189 0.144-0.061 0.045-0.123 0.090-0.186 0.137-0.052 0.039-0.104 0.079-0.157 0.119-0.114 0.086-0.228 0.171-0.343 0.256 0.042 0.381 0.147 0.717 0.278 1.076 0.069 0.205 0.105 0.333 0.047 0.545-0.075 0.129-0.075 0.129-0.138 0.192-0.312 0.044-0.468-0.037-0.71-0.216-0.057-0.044-0.057-0.044-0.114-0.089-0.076-0.057-0.153-0.114-0.229-0.171-0.065-0.049-0.13-0.098-0.197-0.149-0.174-0.142-0.174-0.142-0.36-0.121-0.258 0.075-0.42 0.202-0.624 0.371-0.513 0.413-0.513 0.413-0.891 0.375-0.11-0.104-0.11-0.104-0.188-0.25 0.016-0.169 0.016-0.169 0.070-0.355 0.019-0.066 0.037-0.132 0.056-0.2 0.067-0.213 0.139-0.422 0.22-0.63 0.037-0.168 0.015-0.274-0.034-0.44-0.102-0.114-0.102-0.114-0.236-0.206-0.047-0.035-0.095-0.071-0.144-0.107-0.075-0.054-0.075-0.054-0.151-0.109-0.098-0.073-0.197-0.145-0.295-0.218-0.044-0.032-0.088-0.063-0.133-0.096-0.104-0.077-0.104-0.077-0.166-0.139-0.023-0.18-0.023-0.18 0-0.375 0.218-0.166 0.387-0.212 0.657-0.219 0.064-0.002 0.128-0.004 0.193-0.007s0.132-0.003 0.2-0.004c0.067-0.002 0.134-0.004 0.204-0.006 0.165-0.005 0.33-0.009 0.496-0.013 0.014-0.041 0.029-0.082 0.044-0.124 0.066-0.185 0.132-0.37 0.198-0.555 0.023-0.065 0.046-0.129 0.069-0.196 0.033-0.092 0.033-0.092 0.067-0.187 0.020-0.057 0.041-0.114 0.062-0.173 0.089-0.209 0.141-0.26 0.369-0.289z"></path>
<path d="M21.063 26.063c0.062 0 0.124 0 0.188 0 0.142 0.3 0.285 0.6 0.426 0.899 0.048 0.101 0.096 0.203 0.144 0.304 0.141 0.297 0.282 0.595 0.421 0.894 0.048 0.103 0.097 0.207 0.146 0.31 0.072 0.153 0.144 0.307 0.215 0.46 0.022 0.046 0.044 0.093 0.067 0.141 0.114 0.25 0.176 0.415 0.081 0.679-1.373-0.191-1.373-0.191-1.865-0.292-0.151-0.023-0.295-0.022-0.447-0.021-0.041 0.072-0.041 0.072-0.083 0.145-0.102 0.179-0.205 0.357-0.307 0.535-0.044 0.077-0.088 0.154-0.133 0.231-0.064 0.111-0.127 0.222-0.191 0.333-0.038 0.067-0.077 0.134-0.116 0.202-0.091 0.151-0.186 0.29-0.295 0.428-0.139 0.001-0.139 0.001-0.313-0.063-0.117-0.157-0.192-0.332-0.272-0.51-0.036-0.077-0.036-0.077-0.073-0.156-0.051-0.109-0.102-0.219-0.152-0.329-0.076-0.167-0.154-0.334-0.232-0.5-0.050-0.106-0.099-0.213-0.148-0.32-0.034-0.074-0.034-0.074-0.070-0.15-0.127-0.279-0.227-0.55-0.303-0.848 0.050-0.002 0.1-0.003 0.151-0.005 0.888-0.046 1.534-0.277 2.149-0.921 0.342-0.396 0.611-0.848 0.887-1.291 0.062-0.096 0.062-0.096 0.125-0.158z"></path>
<path d="M10.75 26.063c0.162 0.023 0.234 0.044 0.344 0.169 0.029 0.045 0.058 0.091 0.088 0.138 0.049 0.075 0.049 0.075 0.1 0.152 0.052 0.080 0.052 0.080 0.104 0.163 0.483 0.725 0.924 1.377 1.791 1.667 0.205 0.036 0.412 0.047 0.619 0.059 0.065 0.004 0.065 0.004 0.132 0.008 0.107 0.007 0.214 0.013 0.321 0.019-0.12 0.381-0.26 0.745-0.427 1.107-0.034 0.073-0.034 0.073-0.068 0.148-0.047 0.102-0.095 0.205-0.143 0.307-0.073 0.157-0.144 0.314-0.216 0.472-0.046 0.1-0.093 0.2-0.14 0.299-0.021 0.047-0.042 0.094-0.064 0.143-0.154 0.322-0.154 0.322-0.365 0.397-0.069 0.001-0.069 0.001-0.14 0.001-0.28-0.406-0.531-0.824-0.773-1.254-0.034-0.060-0.068-0.12-0.103-0.182-0.083-0.146-0.166-0.293-0.248-0.439-0.551 0.040-1.084 0.128-1.626 0.232-0.061 0.011-0.122 0.022-0.185 0.034-0.082 0.016-0.082 0.016-0.165 0.032-0.152 0.015-0.255-0.001-0.399-0.048 0.022-0.453 0.229-0.815 0.43-1.215 0.074-0.15 0.147-0.3 0.221-0.45 0.019-0.038 0.037-0.076 0.057-0.115 0.195-0.397 0.379-0.798 0.562-1.2 0.030-0.065 0.059-0.13 0.090-0.197 0.068-0.149 0.136-0.298 0.203-0.448z"></path>
</symbol>
<symbol id="icon-kindness" viewBox="0 0 32 32">
<path d="M6.289-0.009c0.053-0 0.105-0 0.16-0.001 0.176-0.001 0.351-0.001 0.527-0.001 0.126-0 0.253-0.001 0.379-0.001 0.414-0.001 0.829-0.002 1.243-0.003 0.143-0 0.286-0.001 0.429-0.001 0.672-0.001 1.345-0.002 2.017-0.003 0.774-0.001 1.548-0.002 2.322-0.005 0.6-0.002 1.199-0.003 1.799-0.003 0.357-0 0.715-0.001 1.072-0.002 0.337-0.001 0.674-0.002 1.011-0.001 0.123 0 0.246-0 0.368-0.001 0.972-0.006 1.918 0.089 2.818 0.488 0.065 0.028 0.065 0.028 0.132 0.057 1.573 0.694 2.806 2.029 3.45 3.611 0.269 0.713 0.431 1.415 0.437 2.178 0 0.059 0.001 0.119 0.002 0.18 0.001 0.126 0.002 0.251 0.002 0.377s0.002 0.253 0.004 0.38c0.028 1.926-0.55 3.61-1.897 5.011-0.998 1.022-2.523 1.847-3.976 1.879-0.199-0.001-0.398-0.004-0.598-0.008-0.157-0.002-0.314-0.004-0.471-0.007-0.062-0.001-0.062-0.001-0.125-0.002-0.533-0.008-1.065-0.010-1.598-0.012-0.517-0.002-1.033-0.007-1.55-0.016-2.788-0.135-2.788-0.135-5.219 1.040-0.206 0.173-0.428 0.303-0.662 0.434-0.13 0.080-0.261 0.159-0.391 0.239-0.545 0.333-1.091 0.663-1.641 0.988-0.088 0.052-0.088 0.052-0.177 0.105-0.053 0.031-0.106 0.062-0.16 0.094-0.046 0.027-0.092 0.055-0.14 0.083-0.106 0.058-0.106 0.058-0.168 0.058 0-1.011 0-2.021 0-3.063-0.206-0.021-0.412-0.041-0.625-0.063-0.186-0.048-0.362-0.098-0.543-0.16-0.048-0.017-0.096-0.033-0.146-0.050-1.703-0.606-3.025-1.852-3.826-3.462-0.365-0.775-0.555-1.588-0.562-2.442-0.001-0.059-0.001-0.119-0.002-0.18-0.001-0.126-0.002-0.251-0.002-0.377s-0.002-0.253-0.004-0.38c-0.025-1.712 0.395-3.239 1.522-4.574 0.064-0.076 0.064-0.076 0.128-0.154 1.154-1.335 2.88-2.231 4.66-2.23zM8.177 4.032c-0.478 0.65-0.623 1.443-0.527 2.232 0.287 1.759 1.56 3.116 2.952 4.142 0.193 0.139 0.389 0.274 0.586 0.406 0.045 0.031 0.091 0.061 0.138 0.093 0.126 0.084 0.254 0.166 0.382 0.247 0.037 0.024 0.074 0.048 0.112 0.073 0.169 0.102 0.29 0.15 0.488 0.152 0.262-0.088 0.473-0.223 0.701-0.377 0.047-0.031 0.093-0.062 0.142-0.094 0.635-0.425 1.233-0.88 1.788-1.406 0.045-0.042 0.045-0.042 0.091-0.085 0.861-0.806 1.528-1.745 1.784-2.915 0.014-0.063 0.028-0.126 0.043-0.191 0.092-0.862-0.071-1.651-0.604-2.344-0.431-0.511-1.017-0.955-1.7-1.045-0.14-0.007-0.279-0.008-0.419-0.006-0.049 0.001-0.099 0.001-0.15 0.002-0.569 0.015-0.999 0.154-1.477 0.466-0.176 0.074-0.264 0.050-0.444-0.007-0.154-0.072-0.301-0.153-0.45-0.234-1.261-0.566-2.57-0.123-3.436 0.892z"></path>
<path d="M17.33 15.99c0.078-0.001 0.155-0.001 0.235-0.002 0.085-0 0.17-0.001 0.255-0.001 0.090-0.001 0.181-0.001 0.271-0.002 0.296-0.002 0.592-0.003 0.888-0.004 0.102-0 0.205-0.001 0.307-0.001 0.427-0.001 0.854-0.003 1.281-0.003 0.609-0.001 1.217-0.003 1.826-0.007 0.43-0.002 0.859-0.004 1.289-0.004 0.256-0 0.511-0.001 0.767-0.003 2.204-0.017 4.075 0.372 5.696 1.961 1.339 1.362 1.874 2.996 1.875 4.875-0.007 0.621-0.062 1.176-0.27 1.762-0.016 0.045-0.032 0.089-0.048 0.136-0.603 1.662-1.809 3.053-3.409 3.821-0.624 0.287-1.29 0.543-1.98 0.543 0 0.969 0 1.939 0 2.938-0.26-0.087-0.432-0.147-0.655-0.282-0.052-0.031-0.105-0.063-0.159-0.095-0.056-0.034-0.112-0.068-0.17-0.103-0.123-0.074-0.247-0.148-0.371-0.222-0.097-0.058-0.097-0.058-0.196-0.117-0.333-0.198-0.668-0.39-1.004-0.583-0.621-0.357-1.24-0.717-1.859-1.079-0.059-0.034-0.118-0.069-0.178-0.104-0.052-0.030-0.104-0.061-0.157-0.092-0.233-0.134-0.375-0.143-0.646-0.145-0.041-0-0.081-0.001-0.123-0.001-0.088-0.001-0.177-0.001-0.265-0.002-0.141-0.001-0.281-0.002-0.422-0.003-0.4-0.004-0.8-0.007-1.201-0.009-0.245-0.001-0.49-0.004-0.735-0.006-0.093-0.001-0.185-0.001-0.278-0.002-1.914-0.005-3.509-0.735-4.866-2.061-1.389-1.464-1.775-3.289-1.727-5.244 0.023-0.452 0.118-0.86 0.261-1.287 0.022-0.069 0.044-0.138 0.066-0.209 0.594-1.7 1.845-3.021 3.453-3.807 0.702-0.31 1.477-0.553 2.248-0.556zM16.938 21.625c0 0.619 0 1.238 0 1.875 0.619 0 1.238 0 1.875 0 0-0.619 0-1.238 0-1.875-0.619 0-1.238 0-1.875 0zM20.688 21.625c0 0.619 0 1.238 0 1.875 0.619 0 1.238 0 1.875 0 0-0.619 0-1.238 0-1.875-0.619 0-1.238 0-1.875 0zM24.438 21.625c0 0.619 0 1.238 0 1.875 0.619 0 1.238 0 1.875 0 0-0.619 0-1.238 0-1.875-0.619 0-1.238 0-1.875 0z"></path>
<path d="M14.555 4.762c0.347 0.296 0.49 0.582 0.527 1.035-0.029 0.966-0.694 1.79-1.356 2.435-0.228 0.2-0.466 0.387-0.706 0.572-0.046 0.036-0.092 0.072-0.14 0.108-0.495 0.376-0.495 0.376-0.692 0.399-0.176-0.084-0.321-0.202-0.473-0.324-0.044-0.034-0.088-0.069-0.133-0.104-0.897-0.712-1.975-1.612-2.144-2.821-0.024-0.369 0.006-0.605 0.188-0.938 0.322-0.361 0.322-0.361 0.594-0.394 0.063-0.003 0.126-0.005 0.191-0.008 0.062-0.004 0.124-0.008 0.188-0.011 0.38 0.069 0.658 0.264 0.898 0.566 0.113 0.17 0.218 0.343 0.32 0.52 0.036 0.060 0.072 0.12 0.11 0.181 0.261 0.438 0.261 0.438 0.261 0.584 0.041 0 0.082 0 0.125 0 0.021-0.060 0.021-0.060 0.042-0.121 0.115-0.265 0.262-0.507 0.411-0.754 0.029-0.050 0.058-0.099 0.088-0.15 0.38-0.628 0.941-1.089 1.701-0.775z"></path>
</symbol>
<symbol id="icon-stop" viewBox="0 0 32 32">
<path d="M7.359 3.648c1.18 0.541 2.403 0.671 3.641 0.227 0.22-0.089 0.435-0.186 0.651-0.285 0.842-0.382 1.502-0.284 2.349 0.035 0.067 0.027 0.133 0.054 0.202 0.082 1.223 0.494 2.408 0.455 3.618-0.058 0.087-0.039 0.175-0.077 0.262-0.116 0.759-0.314 1.866-0.276 2.631 0.010 0.263 0.135 0.457 0.31 0.661 0.52 0.834 0.817 1.923 1.184 3.084 1.188 0.322-0.005 0.644-0.010 0.966-0.020 0.712-0.010 1.271 0.119 1.824 0.582 0.429 0.424 0.693 0.945 0.71 1.55 0.001 0.142 0 0.285-0.001 0.427 0 0.078 0 0.156 0 0.237-0 0.213-0.001 0.426-0.002 0.638-0.001 0.223-0.001 0.446-0.002 0.669-0.001 0.421-0.002 0.843-0.004 1.264-0.002 0.48-0.003 0.96-0.004 1.44-0.002 0.987-0.005 1.974-0.009 2.961-0.1-0.010-0.2-0.019-0.3-0.029-0.083-0.008-0.083-0.008-0.169-0.016-0.122-0.013-0.243-0.031-0.363-0.051-1.090-0.135-2.172-0.044-3.231 0.221-0.186 0.041-0.371 0.082-0.563 0.125 0-1.568 0-3.135 0-4.75-0.598 0-1.196 0-1.813 0 0.003 0.172 0.007 0.343 0.010 0.52 0.010 0.568 0.017 1.136 0.022 1.703 0.003 0.344 0.008 0.688 0.015 1.032 0.007 0.332 0.011 0.665 0.012 0.997 0.001 0.127 0.003 0.253 0.007 0.38 0.025 0.992 0.025 0.992-0.2 1.302-0.158 0.128-0.311 0.221-0.491 0.315-0.861 0.666-1.445 1.608-1.938 2.563-0.614-0.086-1.119-0.306-1.563-0.75-0.448-0.65-0.572-1.195-0.57-1.975 0-0.066-0-0.132-0-0.2 0-0.217 0.001-0.434 0.001-0.651 0-0.151 0-0.302 0-0.452 0-0.396 0.001-0.793 0.002-1.189 0.001-0.405 0.001-0.809 0.001-1.214 0.001-0.794 0.002-1.587 0.003-2.381-0.598 0-1.196 0-1.813 0 0.001 0.233 0.003 0.466 0.004 0.706 0.004 0.771 0.007 1.543 0.009 2.314 0.001 0.467 0.003 0.935 0.006 1.403 0.002 0.408 0.004 0.815 0.005 1.223 0 0.216 0.001 0.431 0.003 0.647 0.002 0.241 0.002 0.483 0.002 0.724 0.001 0.071 0.002 0.141 0.003 0.214-0.004 0.713-0.195 1.241-0.691 1.754-0.577 0.529-1.12 0.679-1.901 0.659-0.55-0.031-1.047-0.259-1.438-0.645-0.597-0.709-0.7-1.517-0.689-2.408 0.001-0.071 0.001-0.143 0.002-0.216 0.002-0.235 0.005-0.47 0.007-0.705 0.002-0.163 0.003-0.327 0.004-0.49 0.004-0.385 0.007-0.771 0.011-1.156 0.005-0.439 0.009-0.878 0.013-1.317 0.008-0.902 0.017-1.805 0.026-2.707-0.598 0-1.196 0-1.813 0 0.001 0.221 0.002 0.441 0.003 0.669 0.003 0.732 0.005 1.463 0.007 2.195 0.001 0.443 0.002 0.887 0.004 1.33 0.002 0.387 0.003 0.774 0.004 1.16 0 0.204 0.001 0.409 0.002 0.613 0.014 2.264 0.014 2.264-0.696 3.030-0.514 0.492-1.139 0.646-1.834 0.637-0.611-0.032-1.173-0.267-1.615-0.697-0.615-0.75-0.59-1.582-0.588-2.505-0-0.126-0.001-0.253-0.001-0.379-0.001-0.342-0.001-0.684-0.001-1.025 0-0.286-0-0.572-0.001-0.858-0.001-0.675-0.001-1.349-0-2.024 0.001-0.695-0-1.39-0.002-2.085-0.001-0.598-0.002-1.196-0.001-1.794 0-0.357 0-0.713-0.001-1.070-0.001-0.335-0.001-0.671 0-1.006 0-0.123 0-0.245-0.001-0.368-0.005-0.925 0.076-1.646 0.728-2.359 0.806-0.775 1.828-0.758 2.789-0.316z"></path>
<path d="M25.988 16.605c0.108 0.001 0.108 0.001 0.217 0.001 0.519 0.007 0.985 0.046 1.482 0.206 0.039 0.012 0.077 0.024 0.117 0.037 1.567 0.499 2.803 1.539 3.584 2.992 0.17 0.337 0.309 0.674 0.424 1.034 0.020 0.061 0.040 0.121 0.061 0.184 0.421 1.557 0.133 3.249-0.643 4.636-0.837 1.386-2.139 2.402-3.711 2.807-1.614 0.379-3.271 0.152-4.707-0.689-1.433-0.914-2.356-2.303-2.75-3.938-0.303-1.596-0.007-3.213 0.859-4.578 0.771-1.095 1.794-1.929 3.059-2.383 0.041-0.015 0.083-0.030 0.126-0.045 0.619-0.209 1.231-0.267 1.882-0.263zM23.938 19.063c0.088 0.198 0.191 0.331 0.343 0.484 0.045 0.046 0.090 0.091 0.137 0.138 0.050 0.049 0.099 0.099 0.15 0.15 0.052 0.052 0.105 0.105 0.158 0.159 0.143 0.144 0.286 0.287 0.43 0.43 0.15 0.15 0.3 0.3 0.45 0.45 0.252 0.252 0.503 0.503 0.755 0.755 0.292 0.291 0.583 0.582 0.874 0.874 0.25 0.25 0.5 0.5 0.75 0.75 0.149 0.149 0.299 0.299 0.448 0.448 0.166 0.166 0.333 0.332 0.499 0.498 0.050 0.050 0.099 0.1 0.15 0.151 0.045 0.045 0.090 0.090 0.137 0.136 0.039 0.039 0.079 0.079 0.119 0.119 0.093 0.097 0.093 0.097 0.224 0.083 0.531-1.085 0.729-2.264 0.328-3.436-0.494-1.194-1.335-2.002-2.516-2.502-1.132-0.436-2.384-0.212-3.438 0.313zM22.438 20.563c-0.502 1.025-0.695 2.097-0.402 3.223 0.379 1.104 1.064 1.966 2.105 2.508 1.001 0.481 1.978 0.558 3.048 0.27 0.301-0.107 0.589-0.232 0.875-0.375-0.088-0.198-0.191-0.331-0.343-0.484-0.045-0.046-0.090-0.091-0.137-0.138-0.050-0.049-0.099-0.099-0.15-0.15-0.052-0.052-0.105-0.105-0.158-0.159-0.143-0.144-0.286-0.287-0.43-0.43-0.15-0.15-0.3-0.3-0.45-0.45-0.252-0.252-0.503-0.503-0.755-0.755-0.292-0.291-0.583-0.582-0.874-0.874-0.25-0.25-0.5-0.5-0.75-0.75-0.149-0.149-0.299-0.299-0.448-0.448-0.166-0.166-0.333-0.332-0.499-0.498-0.050-0.050-0.099-0.1-0.15-0.151-0.045-0.045-0.090-0.090-0.137-0.136-0.039-0.039-0.079-0.079-0.119-0.119-0.093-0.097-0.093-0.097-0.224-0.083z"></path>
<path d="M2 13.438c0.021 0 0.041 0 0.063 0 0 0.091 0 0.091 0.001 0.184 0.002 0.575 0.006 1.149 0.011 1.724 0.002 0.295 0.004 0.591 0.005 0.886 0.001 0.286 0.003 0.571 0.006 0.857 0.001 0.108 0.001 0.216 0.001 0.325 0.001 1.238 0.252 2.335 1.14 3.262 0.887 0.825 2.030 1.245 3.232 1.23 1.028-0.041 1.915-0.46 2.666-1.155 0.085-0.103 0.169-0.206 0.25-0.313 0.202 0.087 0.316 0.187 0.461 0.352 0.703 0.719 1.732 1.083 2.722 1.104 0.671 0.005 1.287-0.036 1.884-0.378 0.183-0.077 0.183-0.077 0.349-0.042 0.409 0.25 0.649 0.706 0.793 1.151 0.15 0.685 0.061 1.371-0.305 1.972-0.399 0.546-0.918 0.918-1.591 1.029-0.121 0.007-0.243 0.011-0.364 0.013-0.073 0.001-0.146 0.003-0.221 0.004-0.079 0.001-0.159 0.002-0.241 0.003-0.085 0.001-0.17 0.003-0.255 0.004-0.779 0.013-1.559 0.020-2.338 0.025-0.523 0.004-1.045 0.009-1.568 0.019-0.457 0.009-0.914 0.014-1.372 0.015-0.241 0.001-0.482 0.003-0.723 0.010-1.231 0.030-2.124-0.128-3.15-0.868-0.189-0.134-0.385-0.246-0.588-0.359-0.090-0.052-0.090-0.052-0.183-0.105-0.059-0.034-0.117-0.067-0.177-0.102-0.065-0.038-0.131-0.075-0.198-0.114-0.322-0.186-0.645-0.371-0.967-0.557-0.152-0.087-0.303-0.175-0.455-0.262-0.108-0.062-0.216-0.124-0.324-0.186-0.065-0.037-0.13-0.075-0.196-0.113-0.057-0.033-0.115-0.066-0.174-0.1-0.13-0.078-0.13-0.078-0.193-0.141-0.008-0.087-0.011-0.174-0.013-0.262-0.001-0.056-0.003-0.113-0.004-0.171-0.001-0.063-0.002-0.125-0.003-0.189-0.001-0.065-0.003-0.131-0.004-0.198-0.011-0.607-0.018-1.215-0.023-1.822-0.004-0.408-0.009-0.815-0.018-1.223-0.009-0.394-0.013-0.789-0.015-1.183-0.001-0.15-0.004-0.299-0.008-0.449-0.022-0.834-0.004-1.435 0.586-2.065 0.070-0.070 0.141-0.14 0.212-0.209 0.163-0.164 0.296-0.347 0.434-0.532 0.692-0.907 0.692-0.907 0.855-1.070z"></path>
</symbol>
</defs>
</svg>
